<?xml version="1.0" encoding="UTF-8"?>
<svg width="82px" height="60px" viewBox="0 0 82 60" version="1.1" xmlns="http://www.w3.org/2000/svg" xmlns:xlink="http://www.w3.org/1999/xlink">
    <!-- Generator: Sketch 51.3 (57544) - http://www.bohemiancoding.com/sketch -->
    <title>Brand / adidas</title>
    <desc>Created with Sketch.</desc>
    <defs>
        <polygon id="path-1" points="0 0 51 0 51 50 0 50"></polygon>
    </defs>
    <g id="Brand-/-adidas" stroke="none" stroke-width="1" fill="none" fill-rule="evenodd">
        <g id="Group-3" transform="translate(16.000000, 5.000000)">
            <mask id="mask-2" fill="white">
                <use xlink:href="#path-1"></use>
            </mask>
            <g id="Clip-2"></g>
            <path d="M4.47948355,50 C2.01241626,50 0,47.966169 0,45.4783492 C0,42.9392358 2.01241626,40.9615836 4.47948355,40.9615836 C5.4364311,40.9615836 6.34395654,41.2160974 7.09998547,41.7256136 L7.09998547,41.0643335 L9.212215,41.0643335 L9.212215,49.793523 L7.09998547,49.793523 L7.09998547,49.2348301 C6.34395654,49.6937041 5.48811434,50 4.47948355,50 Z M2.06458404,45.4783492 C2.06458404,46.7999323 3.2226117,47.966169 4.53100529,47.966169 C5.93985818,47.966169 7.09998547,46.7999323 7.09998547,45.4783492 C7.09998547,44.1085665 5.93985818,42.9392358 4.53100529,42.9392358 C3.2226117,42.9392358 2.06458404,44.1085665 2.06458404,45.4783492 Z M14.4483735,50 C11.9804987,50 9.9167222,47.966169 9.9167222,45.4783492 C9.9167222,42.9392358 11.9804987,40.9615836 14.4483735,40.9615836 C15.4048365,40.9615836 16.2601942,41.2160974 17.0168692,41.7256136 L17.0168692,38.0671604 L19.180782,38.0671604 L19.180782,49.793523 L17.0168692,49.793523 L17.0168692,49.2348301 C16.2601942,49.6937041 15.4048365,50 14.4483735,50 Z M11.9804987,45.4783492 C11.9804987,46.7999323 13.1386879,47.966169 14.5498019,47.966169 C15.8578725,47.966169 17.0168692,46.7999323 17.0168692,45.4783492 C17.0168692,44.1085665 15.8578725,42.9392358 14.5498019,42.9392358 C13.1386879,42.9392358 11.9804987,44.1085665 11.9804987,45.4783492 Z M20.2372197,49.793523 L22.3512259,49.793523 L22.3512259,41.0643335 L20.2372197,41.0643335 L20.2372197,49.793523 Z M20.2372197,40.2508012 L22.3512259,40.2508012 L22.3512259,38.0671604 L20.2372197,38.0671604 L20.2372197,40.2508012 Z M30.3080226,38.0671604 L32.4221903,38.0671604 L32.4221903,49.793523 L30.3080226,49.793523 L30.3080226,49.2348301 C29.6041614,49.6937041 28.6955054,50 27.7416266,50 C25.2713291,50 23.2602049,47.966169 23.2602049,45.4783492 C23.2602049,42.9392358 25.2713291,40.9615836 27.7416266,40.9615836 C28.6955054,40.9615836 29.5524782,41.2160974 30.3080226,41.7256136 L30.3080226,38.0671604 Z M25.3246274,45.4783492 C25.3246274,46.7999323 26.4802324,47.966169 27.7905642,47.966169 C29.1487029,47.966169 30.3080226,46.7999323 30.3080226,45.4783492 C30.3080226,44.1085665 29.1487029,42.9392358 27.7905642,42.9392358 C26.4802324,42.9392358 25.3246274,44.1085665 25.3246274,45.4783492 Z M37.6568952,50 C35.1891819,50 33.1263744,47.966169 33.1263744,45.4783492 C33.1263744,42.9392358 35.1891819,40.9615836 37.6568952,40.9615836 C38.6165884,40.9615836 39.470654,41.2160974 40.1769378,41.7256136 L40.1769378,41.0643335 L42.3410121,41.0643335 L42.3410121,49.793523 L40.1769378,49.793523 L40.1769378,49.2348301 C39.470654,49.6937041 38.6165884,50 37.6568952,50 Z M35.2400576,45.4783492 C35.2400576,46.7999323 36.4008309,47.966169 37.7609077,47.966169 C39.0663941,47.966169 40.1769378,46.7999323 40.1769378,45.4783492 C40.1769378,44.1085665 39.0663941,42.9392358 37.7609077,42.9392358 C36.4008309,42.9392358 35.2400576,44.1085665 35.2400576,45.4783492 Z M47.081173,50 C49.1959867,50 50.9593543,49.1337085 50.9593543,46.9992444 C50.9593543,45.7825283 50.1033506,44.9704614 48.7434353,44.6159658 C47.3329673,44.2609817 45.5206621,44.3108098 45.5206621,43.3984355 C45.6219289,42.7877977 46.1752627,42.6360338 47.0311049,42.6360338 C48.3422441,42.6360338 48.3908587,43.3469791 48.4427034,43.8025963 L50.6054856,43.8025963 C50.4543121,42.1301 49.0940738,40.9615836 46.9314531,40.9615836 C44.6633663,40.9615836 43.3548112,42.1822078 43.3548112,43.7558621 C43.3548112,44.6677479 43.8068781,45.4783492 44.5651681,45.8854411 C45.1185019,46.1399549 45.8721081,46.3421982 46.7796336,46.4952647 C47.7356121,46.5954093 48.5945229,46.6962053 48.6431375,47.3568339 C48.6431375,47.8147309 48.1878404,48.3739123 47.1821168,48.3739123 C45.7225498,48.3739123 45.4189107,47.5607055 45.4189107,46.9992444 L43.1545386,46.9992444 C43.2054143,48.777096 44.6633663,50 47.081173,50 Z M32.0700982,21.3684149 C32.1715265,20.2007126 32.2719858,19.0839782 32.2719858,17.7646748 C32.2719858,10.6602704 29.1008959,3.29907248 25.6251978,0 C22.1012082,3.29907248 18.9797018,10.6602704 18.9797018,17.7646748 C18.9797018,19.0839782 18.9797018,20.2007126 19.180782,21.3684149 L32.0700982,21.3684149 Z M18.0237234,21.3684149 C17.4692591,20.4058869 16.7125841,19.4905815 15.9601084,18.5762532 C11.6285681,13.4512923 4.93348854,10.3017039 0.352092091,9.9985019 C0.0507141819,13.2977372 1.05595325,17.3082434 3.07014613,21.3684149 L18.0237234,21.3684149 Z M25.6251978,35.6814392 C26.680828,34.565519 27.7905642,33.0420184 28.7977413,31.114357 L22.4027476,31.114357 C23.4611235,33.0420184 24.4689467,34.565519 25.6251978,35.6814392 Z M22.0524321,35.377423 C22.1012082,34.2621541 22.1012082,32.7402819 21.8978669,31.114357 L11.6285681,31.114357 C15.2567317,33.8047457 19.180782,35.1732257 22.0524321,35.377423 Z M50.9499867,9.9985019 C46.3172301,10.3017039 39.6722186,13.4512923 35.3435855,18.5762532 C34.537327,19.4905815 33.8331428,20.4058869 33.2778709,21.3684149 L48.1789574,21.3684149 C50.1928272,17.3082434 51.248942,13.2977372 50.9499867,9.9985019 Z M39.5728899,31.114357 L29.4011432,31.114357 C29.1008959,32.7402819 29.1008959,34.2621541 29.1008959,35.377423 C32.0700982,35.1732257 35.9981861,33.8047457 39.5728899,31.114357 Z M44.1531558,27.3590159 L7.04862525,27.3590159 C7.65235013,28.070124 8.30598164,28.7268446 8.96025919,29.1849044 L42.0901868,29.1849044 C42.8914386,28.7268446 43.6505362,28.070124 44.1531558,27.3590159 Z M47.1745259,23.2988445 C46.8716944,23.9073654 46.3172301,24.769586 45.8125109,25.2755198 L5.38797806,25.2755198 C5.084339,24.8702191 4.37902425,23.9581705 4.07651577,23.2988445 L47.1745259,23.2988445 Z" id="Fill-1" fill="#003B44" mask="url(#mask-2)"></path>
        </g>
    </g>
</svg>