<?xml version="1.0" encoding="UTF-8"?>
<svg width="67px" height="60px" viewBox="0 0 67 60" version="1.1" xmlns="http://www.w3.org/2000/svg" xmlns:xlink="http://www.w3.org/1999/xlink">
    <!-- Generator: Sketch 51.3 (57544) - http://www.bohemiancoding.com/sketch -->
    <title>Brand / Jordan</title>
    <desc>Created with Sketch.</desc>
    <defs></defs>
    <g id="Brand-/-Jordan" stroke="none" stroke-width="1" fill="none" fill-rule="evenodd">
        <g id="Page-1" transform="translate(3.000000, 0.000000)">
            <polygon id="Clip-2" points="0 0 61.3461538 0 61.3461538 55 0 55"></polygon>
            <path d="M33.324797,3.7491086 C33.3010428,3.62810886 33.2842751,3.50573412 33.2758912,3.37923438 C33.1501335,1.63986306 34.513906,0.131491242 36.3234197,0.00774150306 C38.1357281,-0.113258241 39.7049048,1.19848899 39.8306625,2.93786032 C39.9578175,4.67860664 38.5954424,6.18697846 36.7845313,6.3093532 C36.6699521,6.31760318 36.5553728,6.31897818 36.4449855,6.31485319 C36.3723255,6.33272815 36.3276117,6.34235313 36.2647328,6.39597801 C36.0788909,6.67510242 36.7384202,6.62422753 36.2898843,7.84247496 C36.2898843,7.84247496 36.2870897,7.97584968 36.2353893,8.11059939 C36.201854,8.57809841 36.0132174,9.96547048 35.9866685,10.7065939 C36.0830828,10.8124687 36.1096316,10.8647186 36.0984532,11.123218 C36.0565339,11.4738423 35.9726955,12.3345905 35.8385539,12.8873393 C35.7239747,13.3589633 35.5227623,13.4497131 35.3620719,13.5638379 C35.1343107,14.5442108 35.0742265,15.3527091 34.4887545,16.5434566 C34.4370541,17.4440797 34.3713806,17.6902042 34.1743602,18.1288282 C34.1520033,19.4570754 34.2470202,19.652325 33.3164132,21.7546956 C33.0760762,22.7378185 33.3052347,23.4170671 33.5581474,24.4373149 C33.819444,25.4878127 34.5390576,25.9250618 34.645253,26.9989345 C34.8981657,29.5303042 34.8338895,31.2531755 34.2693772,33.2372963 L34.7626268,34.359294 C35.3746477,34.6287934 36.8935214,35.3671668 36.0509447,36.5345394 C37.2372591,37.1326631 39.0286078,37.7692868 40.5055622,38.9834092 C41.0994181,39.4591582 41.7282066,39.9789071 42.2913217,40.5866558 C43.3644542,40.7461555 43.2498749,40.8300303 44.0435458,41.2989043 C46.3812419,42.6766514 50.1302189,45.4101456 52.30443,47.3433916 C52.6789085,47.5537661 52.8298177,47.7050158 53.1316362,47.8562655 C53.1791447,47.9442653 53.1917205,47.9635152 53.1819393,47.9882652 C53.0771412,48.2398897 53.0799359,48.2481396 52.9877135,48.4488892 C53.1050874,48.574014 53.3230674,48.6895137 53.457209,48.7981385 C53.5759802,48.8352634 53.5759802,48.7788885 53.7869736,48.7307636 C54.0594487,48.9755131 54.3961999,49.1721377 54.5177657,49.1611377 C54.8880523,49.0703879 54.8237761,49.1446378 55.1395677,48.8091385 C55.2513523,48.6963887 55.4371942,48.8091385 55.4371942,48.8091385 C55.5573627,48.6785137 55.8060835,48.4131393 56.1456293,48.2233897 C56.4111178,48.070765 56.9253271,48.0542651 56.9253271,48.0542651 C57.0957987,48.05564 57.0636606,48.2247647 57.0510849,48.2797646 C56.8554617,48.3760144 56.4460505,48.4805142 56.2140974,48.6441388 C55.7138612,49.1446378 55.3198204,49.8170113 55.3198204,49.8170113 C56.3314713,49.6836366 56.9532733,49.9242611 57.7930553,49.8321363 C58.2513723,49.8073864 58.5923154,49.8362613 59.0743867,49.499387 C59.0743867,49.499387 59.5368956,49.1831377 59.9532933,49.014013 C60.3571153,48.8462634 60.7385804,48.9356382 61.0962912,49.1831377 C61.345012,49.4553871 61.4973185,49.4567621 61.1130589,49.8403863 C60.9789173,49.990261 60.777705,50.1566356 60.5219976,50.3986351 C60.0776537,50.8207592 59.475414,51.385883 58.8564066,51.853382 C58.2248235,52.326381 57.5107991,52.7512551 57.0664552,52.9437547 C55.9402251,53.7220031 56.2057136,53.5185035 55.3198204,54.2885019 C55.2108304,54.3833767 54.9132038,54.5552513 54.7692811,54.6487511 C54.4199541,54.8673757 54.3109641,54.6845011 54.0846002,54.2802519 C54.0846002,54.2802519 53.9811994,54.1303772 53.8079333,53.8086279 C53.6220913,53.4580036 53.4795659,53.0551295 53.5354582,53.0633795 C53.3286567,53.0386295 52.3826792,51.9730068 52.3798846,51.7461323 C52.1814669,51.7021323 51.3305064,50.910134 51.2997656,50.7588843 L50.5466167,50.1786356 C49.6844777,50.3518852 49.48606,49.8362613 47.2056535,48.2825146 C46.9471516,48.2770146 46.5433296,48.1422649 45.969036,47.7311407 C44.9420148,46.9405174 42.474369,45.1488962 42.056574,44.9453966 C41.6066408,44.7253971 41.0700746,44.5177725 40.7417073,44.2578981 C40.2484576,44.1698983 39.9787772,44.1203984 39.7314537,44.0543985 C39.4785409,43.9883986 39.2507798,43.9017738 38.61221,43.820649 C37.5740103,43.6955243 36.4980832,43.2830251 35.4724592,42.7894012 C34.9861961,42.5666516 34.5628118,42.4552769 34.1464141,42.2834022 C33.2074232,41.902528 32.4039711,41.5587788 31.7821691,41.4212791 C31.5432295,41.3992791 30.4142047,41.0734048 29.8203489,40.7392805 C29.6163419,40.6389057 29.4961734,40.5412809 29.3620319,40.512406 C29.0504322,40.4436561 28.8506172,40.5605309 28.7108864,40.6072808 C27.9507509,40.98678 27.2395212,41.3154043 26.5813892,41.6550286 C25.9693683,41.9712779 25.4062533,42.2957772 24.8096028,42.6271515 C24.2716393,42.9269009 23.6484399,43.2087753 23.0084729,43.5016497 C23.0084729,43.5016497 21.1849862,44.3802728 20.1887056,44.7212721 C19.3251694,45.4005207 17.5589722,46.5733932 16.4802505,47.153642 C15.9464789,47.3983914 14.9096765,48.0295151 14.4303999,48.1711398 C14.1579248,48.3815144 13.1853985,49.048388 12.4238657,49.5997618 C11.8355991,50.0218859 11.3912552,50.3780101 11.3912552,50.3780101 C11.0489148,50.6736345 11.0712717,50.8138842 10.4215235,50.5471348 C10.2412708,50.6901345 10.1029373,50.7795093 9.98696079,50.8606341 C9.51606803,51.1878834 9.47834072,51.1081336 9.30647185,51.1012586 C8.97950181,51.373508 8.93758257,51.2305083 8.65113445,51.5440077 C8.4638952,51.8245071 8.65672369,51.7571322 8.25988825,51.8932569 C8.17604977,51.9235069 8.13692515,52.0197567 8.07264899,52.0747566 C7.75406279,52.327756 7.75266549,53.0386295 6.98973538,53.0908794 C6.54678879,53.3933788 6.65997072,53.759128 6.32321952,53.742628 C6.34417914,54.0575024 5.72656906,54.5167514 5.61338712,54.5140014 C4.64225814,54.8371257 4.57379006,54.1496272 3.40564067,54.6611261 C3.25473142,54.728501 3.03395677,54.9127506 2.74191942,54.9663755 C2.22771012,55.0585003 1.60730542,54.9608755 1.22863499,54.6790011 C0.633381831,54.237627 0.0842398333,53.3865038 0.0842398333,53.3865038 C-0.104396731,52.9561297 0.00599059196,52.6838803 0.597051826,52.2782561 C0.842978013,52.1270065 0.889089173,52.0156317 1.30269231,51.9867567 C1.50809656,51.9111319 1.45220425,52.0252567 1.81969622,51.9015069 C2.03208702,51.8272571 2.03208702,51.879507 2.46106054,51.845132 C2.55747478,51.7805072 2.69580826,51.7571322 2.8802529,51.6993824 C3.21979872,51.5921326 3.54956338,51.4738828 3.54956338,51.4738828 C3.54956338,51.4738828 3.63619647,51.388633 3.96316651,51.4202579 C4.23843616,51.3116332 4.52208966,51.1507585 4.66740968,51.1012586 C4.62968237,50.6805095 4.67719084,50.6997595 4.87980048,50.5306348 C5.1313159,50.3216353 5.17602975,50.3560102 5.36466632,50.4852599 C5.44431287,50.44126 5.48204018,50.426135 5.47365633,50.3615102 C5.44291556,50.1428856 5.24868976,50.0411359 5.30737669,49.5585119 C5.22074361,49.3660123 5.09219128,49.1281378 5.12013744,48.9837631 C5.16205667,48.8283884 5.2011813,48.7527636 5.29899285,48.7032637 C5.40379094,48.6510138 5.43732633,48.7238886 5.49321864,48.7843885 C5.5924275,48.8957633 5.67347136,49.2243876 5.67347136,49.2243876 C5.70840406,49.5983868 5.82857253,50.0796358 6.21143489,49.8073864 C6.43779877,49.5873868 6.48111531,49.0016381 6.94222692,49.1267628 L7.27059427,49.4003872 C7.55005584,49.1501377 7.56263161,49.1501377 7.73030856,49.047013 C7.73030856,49.047013 7.46901199,48.7953885 7.69817048,48.5960139 C7.85466896,48.4626392 8.04470283,48.3650144 8.38005673,48.0075152 C9.30367724,47.0285172 9.77736461,46.5940181 10.7750424,45.8047698 C12.7662062,44.2303981 15.0312422,43.1276505 16.4690721,42.5790266 C16.9385675,42.0070278 17.3968845,41.6261536 18.4378789,41.5312788 C19.6758936,39.5210331 22.0471251,37.7266619 22.5906779,37.4392875 C23.0336245,36.6665391 23.226453,36.7504139 23.8063357,36.5964142 C24.2646527,36.241665 24.3694508,36.241665 24.5748551,35.8717908 C24.7746701,35.1086674 24.1137435,33.0709217 25.8002941,32.9677969 C26.1580049,32.4810479 26.0685772,32.5979227 26.4668099,32.1386737 C26.1971295,31.500675 26.0853449,30.9644261 26.0126849,30.5024271 C25.9987118,30.4488022 25.3433744,30.0046782 25.5292164,29.4244294 C25.2511521,29.1054301 24.7299562,28.3615566 24.5678685,28.0123074 C24.4924139,28.0150574 24.4309324,27.9903074 24.3484912,27.9779324 C24.2632554,27.9641825 24.15706,27.9683075 24.0382888,27.9586825 C23.7769923,28.6104311 23.4905442,28.658556 23.0238433,28.8029307 C22.1910478,30.5093021 21.8976132,31.2325506 19.5389575,32.6432976 C18.6027612,33.6497955 18.3037373,34.7731681 18.3079292,34.7552931 C18.1472388,35.0880424 18.2045284,35.5541664 18.2897642,35.8030409 C18.1654038,36.1729151 18.1989392,36.2086651 18.1989392,36.2086651 C18.2492423,36.3489148 18.3833838,36.5345394 18.5468689,36.5730393 C18.8305224,36.6459141 19.1141759,36.6335392 19.0974082,36.9360385 C19.0596809,37.3155377 18.5412796,37.2536629 18.2967508,37.2110379 C17.3521706,37.0666633 17.6511945,36.4767895 17.0475575,36.6734141 C16.5864459,36.9649135 16.4131797,37.8215367 15.6586335,37.7101619 C15.5594246,37.646912 15.5901654,37.4612874 15.6558389,37.3237877 C15.7620343,37.1134132 15.9492735,36.9374135 15.8388862,36.8590387 C15.3498284,37.0075384 14.3661237,37.3196627 14.3661237,37.3196627 C13.9036148,37.4420375 13.3977893,37.2206629 13.8519144,36.9277885 C14.0643052,36.8480387 14.3661237,36.7504139 14.7392049,36.5207894 C14.7392049,36.5207894 14.9306361,36.2691649 14.5617468,36.3942897 C14.1607194,36.5331644 13.5682609,36.6184142 13.142082,36.5744143 C13.142082,36.5744143 12.2603807,36.4630395 12.1471988,36.3956647 C12.0326195,36.3296648 11.9292187,36.0670404 12.2044884,36.0684154 C12.5538154,36.0711654 13.4285301,35.9735406 14.1062244,35.8002909 C14.4331945,35.6779162 15.0549965,35.3231669 15.4043234,35.1567923 C15.4043234,35.1567923 15.7829939,34.6260434 15.9911928,34.5215436 C16.3391224,34.1379194 16.6325571,33.9110449 16.9399648,33.5164207 C17.2417833,32.919672 17.5519857,31.976424 18.5482662,30.5134271 C19.0093778,29.8396785 19.5808767,29.0531802 20.3018876,28.3533067 C20.3018876,28.3533067 20.4877295,27.228559 21.4253231,26.4283107 C21.6321247,25.9608117 21.9465189,25.4094379 22.2567213,24.8993139 C22.3768898,24.7026894 22.491469,24.5321897 22.6060483,24.3465651 C22.8966883,23.907941 23.2013014,23.0911928 24.3331208,22.963318 C24.3331208,22.963318 24.8179866,22.6195688 25.0038286,22.3748193 C25.2944686,22.1369448 25.2287952,21.7670706 25.4649402,21.5058211 C25.1044348,21.1675718 24.1808142,20.5309482 24.0913865,19.646825 C23.9963696,18.710452 24.3442993,17.9363286 24.9339632,17.3657049 C25.5879033,16.7359562 26.2781734,16.4224568 27.1151608,16.4705817 C28.1617444,16.6204564 28.3587648,16.9532057 28.6927214,17.283205 C29.0127049,17.5953294 29.1314761,17.3945798 29.2656176,17.760329 C30.143127,17.9858285 30.0942212,17.8868288 30.0872347,18.5069524 C30.2227735,18.6815771 30.4477401,18.8452017 30.4449455,19.206826 C30.7397774,18.6169522 30.7984644,18.5097024 31.586546,17.8634538 C31.7737853,17.3368299 31.8981457,16.819831 32.063028,16.2945821 C32.2167319,15.8078331 32.4067657,15.3059592 32.5562777,14.930585 C32.3983819,13.8663372 32.72116,13.6903376 33.1515308,12.7594646 C33.0760762,12.6315898 33.0914466,12.5958399 33.1235847,12.3827154 C33.2912616,11.7667167 33.5525582,10.9513434 33.7076594,10.4205945 C33.7076594,10.4205945 33.7593598,10.208845 33.987121,10.19372 C34.1827441,9.52134641 34.477576,8.26872406 34.5278791,8.0143496 C34.7304888,7.31035108 34.6005391,7.08485156 34.4440406,6.6888524 C34.3937376,6.55822767 34.4174918,6.37260306 34.3308587,6.23097836 C34.0863298,5.81985423 33.8222386,5.28773035 33.6433832,4.90548116 C33.5274067,4.66348167 33.342962,3.7491086 33.342962,3.7491086 C33.1878609,3.28298459 33.324797,3.7491086 33.324797,3.7491086" id="Fill-1" fill="#003B45"></path>
        </g>
    </g>
</svg>