<?xml version="1.0" encoding="UTF-8"?>
<svg width="88px" height="60px" viewBox="0 0 88 60" version="1.1" xmlns="http://www.w3.org/2000/svg" xmlns:xlink="http://www.w3.org/1999/xlink">
    <!-- Generator: Sketch 51.3 (57544) - http://www.bohemiancoding.com/sketch -->
    <title>Brand / NB</title>
    <desc>Created with Sketch.</desc>
    <defs>
        <polygon id="path-1" points="0 0.39463125 5.79870175 0.39463125 5.79870175 7.098975 0 7.098975"></polygon>
        <polygon id="path-3" points="0 38.1918469 69.825614 38.1918469 69.825614 -0.000121875 0 -0.000121875"></polygon>
    </defs>
    <g id="Brand-/-NB" stroke="none" stroke-width="1" fill="none" fill-rule="evenodd">
        <g id="Group-20" transform="translate(7.000000, 11.000000)">
            <g>
                <path d="M26.4843158,16.735875 L24.3253684,20.4140625 L12.4315088,19.7510625 L13.6165965,17.7035625 L26.4843158,16.735875 Z M35.0894035,4.9895625 L36.1615088,9.05775 L19.2767719,7.9535625 L20.4643158,5.89996875 L35.0894035,4.9895625 Z M23.8881754,0 L33.7753684,0.00609375 L34.5220351,2.78971875 L22.6969474,2.05115625 L23.8881754,0 Z M23.0187018,22.7089688 L21.3018596,25.6388437 L9.00519298,25.65225 L10.1902807,23.5974375 L23.0187018,22.7089688 Z M44.6130877,14.8029375 L41.6362456,19.9350938 L44.4718596,19.9350938 C45.7858947,19.9350938 48.1376491,19.2769687 48.8671228,17.4195937 C49.5388772,15.6987187 48.3009825,14.8029375 47.4437895,14.8029375 L44.6130877,14.8029375 Z M47.4585263,9.906 L49.9257193,9.89625 C51.5713333,9.8791875 53.2881754,9.13696875 53.9095789,7.62084375 C54.4953684,6.21196875 53.7204561,5.01759375 52.6888772,5.02490625 L50.2941404,5.01759375 L47.4585263,9.906 Z M36.2560702,9.05775 L38.7576491,4.75678125 L47.2092281,4.22175 L47.505193,3.6928125 L39.6860702,3.1516875 L41.5134386,0 L56.010807,0 C60.472386,0 63.7685263,1.5795 62.4901053,6.24121875 C62.1044912,7.64521875 60.2906316,11.1954375 54.9743158,12.6774375 C56.1053684,12.8078438 58.9102807,14.0473125 58.4239649,17.2514062 C57.568,22.936875 50.1627368,25.6388437 46.035193,25.6388437 L28.9158947,25.6461563 L28.0672982,22.3530938 L37.0383509,21.7351875 L37.3490526,21.2099062 L27.6153684,20.62125 L26.5715088,16.7285625 L40.4081754,15.9254063 L40.7115088,15.409875 L15.8455439,13.8535312 L17.0404561,11.7987187 L43.7976491,10.0815 L44.1022105,9.55621875 L36.2560702,9.05775 Z" id="Fill-1" fill="#003B44"></path>
                <g id="Group-5" transform="translate(0.000000, 30.879347)">
                    <mask id="mask-2" fill="white">
                        <use xlink:href="#path-1"></use>
                    </mask>
                    <g id="Clip-4"></g>
                    <path d="M-0.000245614035,7.098975 L1.56185965,7.098975 L1.56185965,4.0131 C1.56185965,3.46831875 1.56185965,2.78825625 1.84431579,2.3921625 C2.128,1.95950625 2.63642105,1.824225 2.91396491,1.824225 C4.23536842,1.824225 4.23536842,3.364725 4.23536842,3.8936625 L4.23536842,7.098975 L5.79870175,7.098975 L5.79870175,3.59506875 C5.79870175,3.09294375 5.79870175,2.00581875 5.19694737,1.29406875 C4.65782456,0.63594375 3.79694737,0.39463125 3.23449123,0.39463125 C2.24712281,0.39463125 1.70677193,0.9296625 1.44519298,1.17706875 L1.44519298,0.615225 L-0.000245614035,0.615225 L-0.000245614035,7.098975" id="Fill-3" fill="#003B44" mask="url(#mask-2)"></path>
                </g>
                <path d="M12.914386,35.4265031 C12.9610526,35.2229719 13.0114035,34.9536281 13.0114035,34.6513781 C13.0114035,33.0182531 11.7047368,31.2388781 9.63052632,31.2388781 C7.61649123,31.2388781 6.19192982,32.9219719 6.19192982,34.7586281 C6.19192982,36.6501281 7.7,38.1918469 9.64157895,38.1918469 C11.1692982,38.1918469 12.4219298,37.0998469 12.7977193,35.9347219 L11.147193,35.9347219 C10.8549123,36.4758469 10.3366667,36.7634719 9.64157895,36.7634719 C8.52280702,36.7634719 7.91122807,35.8494094 7.84,35.4265031 L12.914386,35.4265031 Z M7.79578947,34.1821594 C8.08929825,32.9780344 9.06929825,32.6623781 9.64157895,32.6623781 C10.4177193,32.6623781 11.2307018,33.1437844 11.4087719,34.1821594 L7.79578947,34.1821594 Z" id="Fill-6" fill="#003B44"></path>
                <polygon id="Fill-8" fill="#003B44" points="15.0173333 37.9783219 15.9801404 37.9783219 17.2192632 33.7736344 17.2425965 33.7736344 18.4645263 37.9783219 19.4273333 37.9783219 21.819614 31.4945719 20.1506667 31.4945719 18.948386 35.4567281 18.9262807 35.4567281 17.8627719 31.4945719 16.6199649 31.4945719 15.5454035 35.4567281 15.5245263 35.4567281 14.3320702 31.4945719 12.6582105 31.4945719"></polygon>
                <path d="M24.8472982,37.9783219 L26.2829123,37.9783219 L26.2829123,37.1934469 C26.6734386,37.6297594 27.2272982,38.1916031 28.4848421,38.1916031 C30.8746667,38.1916031 31.7318596,36.0088219 31.7318596,34.7108531 C31.7318596,32.9899781 30.4362456,31.2739781 28.4504561,31.2739781 C27.7160702,31.2739781 26.9558947,31.5384469 26.4106316,32.0783531 L26.4106316,29.3373844 L24.8472982,29.3373844 L24.8472982,37.9783219 Z M26.3222105,34.6523531 C26.3222105,33.7078219 27.0615088,32.7035719 28.2637895,32.7035719 C29.2474737,32.7035719 30.1709825,33.4579781 30.1709825,34.7218219 C30.1709825,35.9807906 29.3076491,36.7632281 28.2785263,36.7632281 C27.3672982,36.7632281 26.3222105,36.0856031 26.3222105,34.6523531 Z" id="Fill-10" fill="#003B44"></path>
                <path d="M39.038386,31.4942062 L37.6027719,31.4942062 L37.6027719,32.3107688 L37.5806667,32.3107688 C37.5364561,32.2242375 36.746807,31.2736125 35.4118947,31.2736125 C33.6004912,31.2736125 32.144,32.7129562 32.144,34.7019563 C32.144,36.8567063 33.6336491,38.1912375 35.3173333,38.1912375 C36.1425965,38.1912375 37.1078596,37.7573625 37.6027719,37.1711437 L37.6027719,37.9779562 L39.038386,37.9779562 L39.038386,31.4942062 Z M37.5597895,34.7214562 C37.5597895,35.9207062 36.7357544,36.7628625 35.6452281,36.7628625 C34.5338246,36.7628625 33.7073333,35.8646437 33.7073333,34.7677688 C33.7073333,33.7952062 34.366807,32.7032063 35.6452281,32.7032063 C36.5810175,32.7032063 37.5597895,33.377175 37.5597895,34.7214562 Z" id="Fill-12" fill="#003B44"></path>
                <mask id="mask-4" fill="white">
                    <use xlink:href="#path-3"></use>
                </mask>
                <g id="Clip-15"></g>
                <polygon id="Fill-14" fill="#003B44" mask="url(#mask-4)" points="39.8729825 37.9785656 41.4363158 37.9785656 41.4363158 29.3376281 39.8729825 29.3376281"></polygon>
                <path d="M48.8059649,31.4942062 L47.3666667,31.4942062 L47.3666667,32.3107688 L47.3457895,32.3107688 C47.3003509,32.2242375 46.5070175,31.2736125 45.1757895,31.2736125 C43.364386,31.2736125 41.9078947,32.7129562 41.9078947,34.7019563 C41.9078947,36.8567063 43.4036842,38.1912375 45.0898246,38.1912375 C45.9126316,38.1912375 46.8717544,37.7573625 47.3666667,37.1711437 L47.3666667,37.9779562 L48.8059649,37.9779562 L48.8059649,31.4942062 Z M47.3224561,34.7214562 C47.3224561,35.9207062 46.4935088,36.7628625 45.4152632,36.7628625 C44.2977193,36.7628625 43.4749123,35.8646437 43.4749123,34.7677688 C43.4749123,33.7952062 44.1331579,32.7032063 45.4152632,32.7032063 C46.3449123,32.7032063 47.3224561,33.377175 47.3224561,34.7214562 Z" id="Fill-16" fill="#003B44" mask="url(#mask-4)"></path>
                <path d="M49.6365088,37.9783219 L51.2035263,37.9783219 L51.2035263,34.8924469 C51.2035263,34.3476656 51.2035263,33.6676031 51.4835263,33.2715094 C51.7659825,32.8388531 52.2731754,32.7035719 52.5556316,32.7035719 C53.8733509,32.7035719 53.8733509,34.2440719 53.8733509,34.7730094 L53.8733509,37.9783219 L55.4415965,37.9783219 L55.4415965,34.4744156 C55.4415965,33.9722906 55.4415965,32.8851656 54.8398421,32.1734156 C54.3007193,31.5152906 53.4410702,31.2739781 52.8724737,31.2739781 C51.8826491,31.2739781 51.3435263,31.8090094 51.0819474,32.0564156 L51.0819474,31.4945719 L49.6365088,31.4945719 L49.6365088,37.9783219" id="Fill-17" fill="#003B44" mask="url(#mask-4)"></path>
                <path d="M61.0009474,35.8645219 C60.5895439,36.5202094 60.0712982,36.7627406 59.5555088,36.7627406 C58.3765614,36.7627406 57.5881404,35.8425844 57.5881404,34.7274281 C57.5881404,33.3977719 58.5337544,32.7030844 59.4842807,32.7030844 C60.4458596,32.7030844 60.8167368,33.3209906 61.0009474,33.6463969 L62.7681404,33.6463969 C62.097614,31.6476469 60.3070877,31.2734906 59.4842807,31.2734906 C57.6814737,31.2734906 56.024807,32.7189281 56.024807,34.7115844 C56.024807,36.8565844 57.8214737,38.1911156 59.4953333,38.1911156 C61.0304211,38.1911156 62.2351579,37.3136156 62.7681404,35.8645219 L61.0009474,35.8645219" id="Fill-18" fill="#003B44" mask="url(#mask-4)"></path>
                <path d="M69.7311754,35.4265031 C69.7815263,35.2229719 69.8257368,34.9536281 69.8257368,34.6513781 C69.8257368,33.0182531 68.5178421,31.2388781 66.451,31.2388781 C64.4332807,31.2388781 63.0148596,32.9219719 63.0148596,34.7586281 C63.0148596,36.6501281 64.5155614,38.1918469 66.4620526,38.1918469 C67.9848596,38.1918469 69.2362632,37.0998469 69.6145088,35.9347219 L67.9639825,35.9347219 C67.6692456,36.4758469 67.151,36.7634719 66.4620526,36.7634719 C65.3383684,36.7634719 64.7317018,35.8494094 64.6604737,35.4265031 L69.7311754,35.4265031 Z M64.6101228,34.1821594 C64.9060877,32.9780344 65.8774912,32.6623781 66.4620526,32.6623781 C67.2345088,32.6623781 68.0462632,33.1437844 68.2255614,34.1821594 L64.6101228,34.1821594 Z" id="Fill-19" fill="#003B44" mask="url(#mask-4)"></path>
            </g>
        </g>
    </g>
</svg>