<?xml version="1.0" encoding="UTF-8"?>
<svg width="90px" height="60px" viewBox="0 0 90 60" version="1.1" xmlns="http://www.w3.org/2000/svg" xmlns:xlink="http://www.w3.org/1999/xlink">
    <!-- Generator: Sketch 51.3 (57544) - http://www.bohemiancoding.com/sketch -->
    <title>Brand / Nike</title>
    <desc>Created with Sketch.</desc>
    <defs></defs>
    <g id="Brand-/-Nike" stroke="none" stroke-width="1" fill="none" fill-rule="evenodd">
        <g id="Page-1" transform="translate(10.000000, 18.000000)">
            <polygon id="Clip-2" points="0 0.0003 80 0.0003 80 27.9997 0 27.9997"></polygon>
            <path d="M8.8243,27.9883 C6.4413,27.8953 4.4903,27.2553 2.9663,26.0653 C2.6753,25.8383 1.9803,25.1573 1.7483,24.8693 C1.1313,24.1053 0.7103,23.3633 0.4293,22.5383 C-0.4337,20.0003 0.0113,16.6693 1.6993,13.0133 C3.1453,9.8843 5.3773,6.7813 9.2693,2.4823 C9.8443,1.8493 11.5513,0.0003 11.5623,0.0003 C11.5663,0.0003 11.4733,0.1583 11.3563,0.3513 C10.3443,2.0163 9.4783,3.9773 9.0063,5.6763 C8.2483,8.4003 8.3403,10.7383 9.2733,12.5503 C9.9183,13.8003 11.0233,14.8823 12.2653,15.4803 C14.4413,16.5273 17.6253,16.6133 21.5133,15.7323 C21.7823,15.6733 35.0503,12.2143 51.0003,8.0473 C66.9473,3.8803 79.9983,0.4723 80.0003,0.4763 C80.0043,0.4793 42.9473,16.0523 23.7103,24.1313 C20.6633,25.4103 19.8473,25.7323 18.4163,26.2263 C14.7553,27.4903 11.4743,28.0923 8.8243,27.9883" id="Fill-1" fill="#003B45"></path>
        </g>
    </g>
</svg>